<svg xmlns="http://www.w3.org/2000/svg" viewBox="0 0 200 200"><g fill="#FFF"><path d="M100 110.7c5.9 0 10.7-4.8 10.7-10.7s-4.8-10.7-10.7-10.7-10.7 4.8-10.7 10.7 4.8 10.7 10.7 10.7zM78.7 73.3h2.7V84h-2.7zm5.3 0h2.7V84H84zm5.3 0H92V84h-2.7z"/><path d="M100 0C44.8 0 0 44.8 0 100s44.8 100 100 100 100-44.8 100-100S155.2 0 100 0zm32 126.7c0 2.9-2.4 5.3-5.3 5.3H73.3c-2.9 0-5.3-2.4-5.3-5.3V73.3c0-2.9 2.4-5.3 5.3-5.3h53.3c2.9 0 5.3 2.4 5.3 5.3v53.4z"/><path d="M116 73.3h10.7V84H116zm0 26.7c0 8.8-7.2 16-16 16s-16-7.2-16-16c0-4.1 1.6-7.8 4.1-10.7H73.3v37.3h53.3V89.3h-14.8c2.6 2.9 4.2 6.6 4.2 10.7zM73.3 73.3H76V84h-2.7z"/></g></svg>