<svg xmlns="http://www.w3.org/2000/svg" viewBox="0 0 186 81.2"><path d="M48.7 67.2h4.7l.1.5-1.3.4c-.1 0-.2.2-.2.3v11.3c0 .1.1.3.3.3l1.3.4v.5h-5.9v-.5l1.1-.3c.2 0 .2-.2.2-.4v-10c-.2.6-.5 1.1-.7 1.7l-3.9 9.5-.8.1-3.7-9.2c-.2-.5-.4-1.1-.7-1.8v9.7c0 .2.1.3.3.4l1.1.3v.5h-4.2v-.5l1.3-.4c.2-.1.3-.2.3-.3V68.4c0-.2-.1-.3-.2-.3l-1.3-.4v-.5h4.7l3.4 8.6c.1.4.3.7.4 1.1.1-.3.3-.7.4-1.1l3.3-8.6zM73 73.7c0 2.3-.7 4.1-2 5.4-1.3 1.4-3.2 2.1-5.5 2.1s-4-.6-5.3-1.9c-1.2-1.3-1.9-3-1.9-5.1 0-2.3.7-4 2-5.3 1.3-1.3 3.2-2 5.5-2s4 .6 5.3 1.8c1.3 1.2 1.9 2.9 1.9 5zm-11.4.2c0 2.1.4 3.7 1.1 4.8s1.7 1.7 3.1 1.7c1.3 0 2.3-.5 3-1.5.6-1 1-2.6 1-4.7 0-2-.3-3.6-1-4.7s-1.7-1.6-3.1-1.6c-1.4 0-2.4.5-3 1.5s-1.1 2.4-1.1 4.5zm22.9-5.8c-.4-.2-.9-.2-1.4-.2-.7 0-1.3.2-1.8.6-.5.4-.7.9-.7 1.6 0 .4.1.7.2 1s.4.5.6.7.6.4.9.6c.3.2.7.3 1 .5l1.2.6c.4.2.8.5 1.1.8.3.3.6.7.8 1.1s.3 1 .3 1.6c0 1.3-.5 2.4-1.5 3.1-1 .8-2.3 1.1-3.9 1.1-1.2 0-2.3-.2-3.5-.6l-.1-.1.5-3.5.6-.1.7 3c.5.2 1 .3 1.6.3.8 0 1.5-.2 2-.6s.8-1 .8-1.7c0-.4-.1-.7-.2-1-.2-.3-.4-.5-.6-.7l-.9-.6c-.3-.2-.7-.3-1.1-.5l-1.2-.6c-.4-.2-.8-.5-1.1-.8-.3-.3-.6-.7-.8-1.1-.2-.4-.3-.9-.3-1.5 0-1.2.5-2.2 1.4-3 1-.7 2.2-1.1 3.7-1.1 1 0 2.1.1 3.3.4l.1.1-.6 3.1-.5.1-.6-2.6zm17.7 2.8l-.5.1-.7-2.8c-.5-.2-1.1-.2-1.7-.2-1.4 0-2.6.5-3.3 1.6-.8 1.1-1.2 2.5-1.2 4.2 0 1.9.5 3.3 1.4 4.5.9 1.1 2.2 1.7 3.9 1.7.9 0 1.9-.2 2.9-.6l.1.6c-1.3.9-2.8 1.3-4.4 1.3-2.1 0-3.8-.6-5.2-1.9-1.3-1.3-2-3-2-5.1 0-2.2.7-4 2.2-5.3 1.4-1.3 3.3-2 5.6-2 1.1 0 2.3.1 3.5.4l.1.1-.7 3.4zm19.4 2.8c0 2.3-.7 4.1-2 5.4-1.3 1.4-3.2 2.1-5.5 2.1s-4-.6-5.3-1.9c-1.2-1.3-1.9-3-1.9-5.1 0-2.3.7-4 2-5.3 1.3-1.3 3.2-2 5.5-2s4 .6 5.3 1.8c1.3 1.2 1.9 2.9 1.9 5zm-11.4.2c0 2.1.4 3.7 1.1 4.8s1.7 1.7 3.1 1.7c1.3 0 2.3-.5 3-1.5.6-1 1-2.6 1-4.7 0-2-.3-3.6-1-4.7s-1.7-1.6-3.1-1.6c-1.4 0-2.4.5-3 1.5s-1.1 2.4-1.1 4.5zm28.6 1.7c.1.4.2.7.3 1 .1-.4.2-.7.3-1l2-5.8c.1-.4.2-.7.3-.9s.1-.4.1-.5c0-.1 0-.2-.1-.3s-.2-.1-.3-.1l-.9-.3v-.5h4.4v.5l-1 .3c-.2.1-.4.2-.6.4-.1.2-.3.4-.4.8l-4.2 11.7-1.1.1-2.5-7.7c-.1-.4-.3-.9-.4-1.3-.2.5-.3.9-.4 1.3l-2.7 7.7-1.1.1-3.8-11.7c-.1-.4-.3-.8-.4-.9-.1-.2-.3-.3-.6-.4l-.9-.3v-.5h6.1l.1.5-1 .3c-.1 0-.2.1-.3.1s-.1.1-.1.3c0 .1 0 .3.1.5 0 .2.1.5.2.8l1.8 5.8c.1.4.2.7.3 1 .1-.4.2-.7.3-1l2.9-8.4 1-.1 2.6 8.5zM105.9 0h39.2v20.5h-6.9v-14H129v37.3h-16v-6.6h8.9V6.5H113v14h-7.1zM27.8 0H62v6.5L37.4 37.2H62v6.6H27.8v-6.6L52.3 6.5H34.2v10.6h-6.4zm153.9 37.2L166.2 0H147v6.5h10l-13.1 30.7v6.5h14.2v-6.5h-6.3l2.8-6.8h16.6l3 6.8h-7v6.5H186v-6.5h-4.3zm-24.4-13.5l5.7-13 5.3 13h-11zm-141 13.5V6.5h9V0H0v6.5h9.2v30.7H0v6.6h25.3v-6.6zM103.5 0v6.5H77.7v11h7v-5.1h6.9v11.7H77.7v13.1h19.1v-9.8h6.7v16.4H64.4v-6.6h6.2V6.5h-6.2V0z" fill="#FFF"/></svg>