<svg xmlns="http://www.w3.org/2000/svg" viewBox="0 0 32 32"><path fill="#6E7889" d="M28 2c1.1 0 2 .9 2 2s-.9 2-2 2-2-.9-2-2 .9-2 2-2m0-2c-2.2 0-4 1.8-4 4s1.8 4 4 4 4-1.8 4-4-1.8-4-4-4zm0 26c1.1 0 2 .9 2 2s-.9 2-2 2-2-.9-2-2 .9-2 2-2m0-2c-2.2 0-4 1.8-4 4s1.8 4 4 4 4-1.8 4-4-1.8-4-4-4zM4 14c1.1 0 2 .9 2 2s-.9 2-2 2-2-.9-2-2 .9-2 2-2m0-2c-2.2 0-4 1.8-4 4s1.8 4 4 4 4-1.8 4-4-1.8-4-4-4z"/><path fill="none" stroke="#6E7889" stroke-width="2" stroke-miterlimit="10" d="M6.7 14.6l18.6-9.2m-18.6 12l18.6 9.2"/></svg>