<svg xmlns="http://www.w3.org/2000/svg" xmlns:xlink="http://www.w3.org/1999/xlink" height="1432" viewBox="0 0 208 1432" width="208"><svg height="200" viewBox="0 0 200 200" width="200" x="4" y="4"><g fill="#FFF"><path d="M100 110.7c5.9 0 10.7-4.8 10.7-10.7s-4.8-10.7-10.7-10.7-10.7 4.8-10.7 10.7 4.8 10.7 10.7 10.7zM78.7 73.3h2.7V84h-2.7zm5.3 0h2.7V84H84zm5.3 0H92V84h-2.7z"/><path d="M100 0C44.8 0 0 44.8 0 100s44.8 100 100 100 100-44.8 100-100S155.2 0 100 0zm32 126.7c0 2.9-2.4 5.3-5.3 5.3H73.3c-2.9 0-5.3-2.4-5.3-5.3V73.3c0-2.9 2.4-5.3 5.3-5.3h53.3c2.9 0 5.3 2.4 5.3 5.3v53.4z"/><path d="M116 73.3h10.7V84H116zm0 26.7c0 8.8-7.2 16-16 16s-16-7.2-16-16c0-4.1 1.6-7.8 4.1-10.7H73.3v37.3h53.3V89.3h-14.8c2.6 2.9 4.2 6.6 4.2 10.7zM73.3 73.3H76V84h-2.7z"/></g></svg><svg height="81.2" viewBox="0 0 186 82" width="186" x="4" y="208"><path d="M48.7 67.2h4.7l.1.5-1.3.4c-.1 0-.2.2-.2.3v11.3c0 .1.1.3.3.3l1.3.4v.5h-5.9v-.5l1.1-.3c.2 0 .2-.2.2-.4v-10c-.2.6-.5 1.1-.7 1.7l-3.9 9.5-.8.1-3.7-9.2c-.2-.5-.4-1.1-.7-1.8v9.7c0 .2.1.3.3.4l1.1.3v.5h-4.2v-.5l1.3-.4c.2-.1.3-.2.3-.3V68.4c0-.2-.1-.3-.2-.3l-1.3-.4v-.5h4.7l3.4 8.6c.1.4.3.7.4 1.1.1-.3.3-.7.4-1.1l3.3-8.6zM73 73.7c0 2.3-.7 4.1-2 5.4-1.3 1.4-3.2 2.1-5.5 2.1s-4-.6-5.3-1.9c-1.2-1.3-1.9-3-1.9-5.1 0-2.3.7-4 2-5.3 1.3-1.3 3.2-2 5.5-2s4 .6 5.3 1.8c1.3 1.2 1.9 2.9 1.9 5zm-11.4.2c0 2.1.4 3.7 1.1 4.8s1.7 1.7 3.1 1.7c1.3 0 2.3-.5 3-1.5.6-1 1-2.6 1-4.7 0-2-.3-3.6-1-4.7s-1.7-1.6-3.1-1.6c-1.4 0-2.4.5-3 1.5s-1.1 2.4-1.1 4.5zm22.9-5.8c-.4-.2-.9-.2-1.4-.2-.7 0-1.3.2-1.8.6-.5.4-.7.9-.7 1.6 0 .4.1.7.2 1s.4.5.6.7.6.4.9.6c.3.2.7.3 1 .5l1.2.6c.4.2.8.5 1.1.8.3.3.6.7.8 1.1s.3 1 .3 1.6c0 1.3-.5 2.4-1.5 3.1-1 .8-2.3 1.1-3.9 1.1-1.2 0-2.3-.2-3.5-.6l-.1-.1.5-3.5.6-.1.7 3c.5.2 1 .3 1.6.3.8 0 1.5-.2 2-.6s.8-1 .8-1.7c0-.4-.1-.7-.2-1-.2-.3-.4-.5-.6-.7l-.9-.6c-.3-.2-.7-.3-1.1-.5l-1.2-.6c-.4-.2-.8-.5-1.1-.8-.3-.3-.6-.7-.8-1.1-.2-.4-.3-.9-.3-1.5 0-1.2.5-2.2 1.4-3 1-.7 2.2-1.1 3.7-1.1 1 0 2.1.1 3.3.4l.1.1-.6 3.1-.5.1-.6-2.6zm17.7 2.8l-.5.1-.7-2.8c-.5-.2-1.1-.2-1.7-.2-1.4 0-2.6.5-3.3 1.6-.8 1.1-1.2 2.5-1.2 4.2 0 1.9.5 3.3 1.4 4.5.9 1.1 2.2 1.7 3.9 1.7.9 0 1.9-.2 2.9-.6l.1.6c-1.3.9-2.8 1.3-4.4 1.3-2.1 0-3.8-.6-5.2-1.9-1.3-1.3-2-3-2-5.1 0-2.2.7-4 2.2-5.3 1.4-1.3 3.3-2 5.6-2 1.1 0 2.3.1 3.5.4l.1.1-.7 3.4zm19.4 2.8c0 2.3-.7 4.1-2 5.4-1.3 1.4-3.2 2.1-5.5 2.1s-4-.6-5.3-1.9c-1.2-1.3-1.9-3-1.9-5.1 0-2.3.7-4 2-5.3 1.3-1.3 3.2-2 5.5-2s4 .6 5.3 1.8c1.3 1.2 1.9 2.9 1.9 5zm-11.4.2c0 2.1.4 3.7 1.1 4.8s1.7 1.7 3.1 1.7c1.3 0 2.3-.5 3-1.5.6-1 1-2.6 1-4.7 0-2-.3-3.6-1-4.7s-1.7-1.6-3.1-1.6c-1.4 0-2.4.5-3 1.5s-1.1 2.4-1.1 4.5zm28.6 1.7c.1.4.2.7.3 1 .1-.4.2-.7.3-1l2-5.8c.1-.4.2-.7.3-.9s.1-.4.1-.5c0-.1 0-.2-.1-.3s-.2-.1-.3-.1l-.9-.3v-.5h4.4v.5l-1 .3c-.2.1-.4.2-.6.4-.1.2-.3.4-.4.8l-4.2 11.7-1.1.1-2.5-7.7c-.1-.4-.3-.9-.4-1.3-.2.5-.3.9-.4 1.3l-2.7 7.7-1.1.1-3.8-11.7c-.1-.4-.3-.8-.4-.9-.1-.2-.3-.3-.6-.4l-.9-.3v-.5h6.1l.1.5-1 .3c-.1 0-.2.1-.3.1s-.1.1-.1.3c0 .1 0 .3.1.5 0 .2.1.5.2.8l1.8 5.8c.1.4.2.7.3 1 .1-.4.2-.7.3-1l2.9-8.4 1-.1 2.6 8.5zM105.9 0h39.2v20.5h-6.9v-14H129v37.3h-16v-6.6h8.9V6.5H113v14h-7.1zM27.8 0H62v6.5L37.4 37.2H62v6.6H27.8v-6.6L52.3 6.5H34.2v10.6h-6.4zm153.9 37.2L166.2 0H147v6.5h10l-13.1 30.7v6.5h14.2v-6.5h-6.3l2.8-6.8h16.6l3 6.8h-7v6.5H186v-6.5h-4.3zm-24.4-13.5l5.7-13 5.3 13h-11zm-141 13.5V6.5h9V0H0v6.5h9.2v30.7H0v6.6h25.3v-6.6zM103.5 0v6.5H77.7v11h7v-5.1h6.9v11.7H77.7v13.1h19.1v-9.8h6.7v16.4H64.4v-6.6h6.2V6.5h-6.2V0z" fill="#FFF"/></svg><svg height="81.2" viewBox="0 0 186 82" width="186" x="4" y="294"><path d="M48.7 67.2h4.7l.1.5-1.3.4c-.1 0-.2.2-.2.3v11.3c0 .1.1.3.3.3l1.3.4v.5h-5.9v-.5l1.1-.3c.2 0 .2-.2.2-.4v-10c-.2.6-.5 1.1-.7 1.7l-3.9 9.5-.8.1-3.7-9.2c-.2-.5-.4-1.1-.7-1.8v9.7c0 .2.1.3.3.4l1.1.3v.5h-4.2v-.5l1.3-.4c.2-.1.3-.2.3-.3V68.4c0-.2-.1-.3-.2-.3l-1.3-.4v-.5h4.7l3.4 8.6c.1.4.3.7.4 1.1.1-.3.3-.7.4-1.1l3.3-8.6zM73 73.7c0 2.3-.7 4.1-2 5.4-1.3 1.4-3.2 2.1-5.5 2.1s-4-.6-5.3-1.9c-1.2-1.3-1.9-3-1.9-5.1 0-2.3.7-4 2-5.3 1.3-1.3 3.2-2 5.5-2s4 .6 5.3 1.8c1.3 1.2 1.9 2.9 1.9 5zm-11.4.2c0 2.1.4 3.7 1.1 4.8s1.7 1.7 3.1 1.7c1.3 0 2.3-.5 3-1.5.6-1 1-2.6 1-4.7 0-2-.3-3.6-1-4.7s-1.7-1.6-3.1-1.6c-1.4 0-2.4.5-3 1.5s-1.1 2.4-1.1 4.5zm22.9-5.8c-.4-.2-.9-.2-1.4-.2-.7 0-1.3.2-1.8.6-.5.4-.7.9-.7 1.6 0 .4.1.7.2 1s.4.5.6.7.6.4.9.6c.3.2.7.3 1 .5l1.2.6c.4.2.8.5 1.1.8.3.3.6.7.8 1.1s.3 1 .3 1.6c0 1.3-.5 2.4-1.5 3.1-1 .8-2.3 1.1-3.9 1.1-1.2 0-2.3-.2-3.5-.6l-.1-.1.5-3.5.6-.1.7 3c.5.2 1 .3 1.6.3.8 0 1.5-.2 2-.6s.8-1 .8-1.7c0-.4-.1-.7-.2-1-.2-.3-.4-.5-.6-.7l-.9-.6c-.3-.2-.7-.3-1.1-.5l-1.2-.6c-.4-.2-.8-.5-1.1-.8-.3-.3-.6-.7-.8-1.1-.2-.4-.3-.9-.3-1.5 0-1.2.5-2.2 1.4-3 1-.7 2.2-1.1 3.7-1.1 1 0 2.1.1 3.3.4l.1.1-.6 3.1-.5.1-.6-2.6zm17.7 2.8l-.5.1-.7-2.8c-.5-.2-1.1-.2-1.7-.2-1.4 0-2.6.5-3.3 1.6-.8 1.1-1.2 2.5-1.2 4.2 0 1.9.5 3.3 1.4 4.5.9 1.1 2.2 1.7 3.9 1.7.9 0 1.9-.2 2.9-.6l.1.6c-1.3.9-2.8 1.3-4.4 1.3-2.1 0-3.8-.6-5.2-1.9-1.3-1.3-2-3-2-5.1 0-2.2.7-4 2.2-5.3 1.4-1.3 3.3-2 5.6-2 1.1 0 2.3.1 3.5.4l.1.1-.7 3.4zm19.4 2.8c0 2.3-.7 4.1-2 5.4-1.3 1.4-3.2 2.1-5.5 2.1s-4-.6-5.3-1.9c-1.2-1.3-1.9-3-1.9-5.1 0-2.3.7-4 2-5.3 1.3-1.3 3.2-2 5.5-2s4 .6 5.3 1.8c1.3 1.2 1.9 2.9 1.9 5zm-11.4.2c0 2.1.4 3.7 1.1 4.8s1.7 1.7 3.1 1.7c1.3 0 2.3-.5 3-1.5.6-1 1-2.6 1-4.7 0-2-.3-3.6-1-4.7s-1.7-1.6-3.1-1.6c-1.4 0-2.4.5-3 1.5s-1.1 2.4-1.1 4.5zm28.6 1.7c.1.4.2.7.3 1 .1-.4.2-.7.3-1l2-5.8c.1-.4.2-.7.3-.9s.1-.4.1-.5c0-.1 0-.2-.1-.3s-.2-.1-.3-.1l-.9-.3v-.5h4.4v.5l-1 .3c-.2.1-.4.2-.6.4-.1.2-.3.4-.4.8l-4.2 11.7-1.1.1-2.5-7.7c-.1-.4-.3-.9-.4-1.3-.2.5-.3.9-.4 1.3l-2.7 7.7-1.1.1-3.8-11.7c-.1-.4-.3-.8-.4-.9-.1-.2-.3-.3-.6-.4l-.9-.3v-.5h6.1l.1.5-1 .3c-.1 0-.2.1-.3.1s-.1.1-.1.3c0 .1 0 .3.1.5 0 .2.1.5.2.8l1.8 5.8c.1.4.2.7.3 1 .1-.4.2-.7.3-1l2.9-8.4 1-.1 2.6 8.5zM105.9 0h39.2v20.5h-6.9v-14H129v37.3h-16v-6.6h8.9V6.5H113v14h-7.1zM27.8 0H62v6.5L37.4 37.2H62v6.6H27.8v-6.6L52.3 6.5H34.2v10.6h-6.4zm153.9 37.2L166.2 0H147v6.5h10l-13.1 30.7v6.5h14.2v-6.5h-6.3l2.8-6.8h16.6l3 6.8h-7v6.5H186v-6.5h-4.3zm-24.4-13.5l5.7-13 5.3 13h-11zm-141 13.5V6.5h9V0H0v6.5h9.2v30.7H0v6.6h25.3v-6.6zM103.5 0v6.5H77.7v11h7v-5.1h6.9v11.7H77.7v13.1h19.1v-9.8h6.7v16.4H64.4v-6.6h6.2V6.5h-6.2V0z" fill="#1D2026"/></svg><svg height="128" viewBox="0 0 128 128" width="128" x="4" y="380"><path fill="#6E7889" d="M128 63H65V0h-2v63H0v2h63v63h2V65h63z"/></svg><svg height="92" viewBox="0 0 32 92" width="32" x="4" y="512"><path fill="#1D2026" d="M0 1.8L1.2 0 32 46 1.2 92 0 90.2 29.6 46z"/></svg><svg height="92" viewBox="0 0 32 92" width="32" x="4" y="608"><path fill="#FFF" d="M0 1.8L1.2 0 32 46 1.2 92 0 90.2 29.6 46z"/></svg><svg height="92" viewBox="0 0 32 92" width="32" x="4" y="704"><path fill="#1D2026" d="M32 1.8L30.8 0 0 46l30.8 46 1.2-1.8L2.4 46z"/></svg><svg height="92" viewBox="0 0 32 92" width="32" x="4" y="800"><path fill="#FFF" d="M32 1.8L30.8 0 0 46l30.8 46 1.2-1.8L2.4 46z"/></svg><svg height="32" viewBox="0 0 32 32" width="32" x="4" y="896"><path fill="#FFF" d="M28 2c1.1 0 2 .9 2 2s-.9 2-2 2-2-.9-2-2 .9-2 2-2m0-2c-2.2 0-4 1.8-4 4s1.8 4 4 4 4-1.8 4-4-1.8-4-4-4zm0 26c1.1 0 2 .9 2 2s-.9 2-2 2-2-.9-2-2 .9-2 2-2m0-2c-2.2 0-4 1.8-4 4s1.8 4 4 4 4-1.8 4-4-1.8-4-4-4zM4 14c1.1 0 2 .9 2 2s-.9 2-2 2-2-.9-2-2 .9-2 2-2m0-2c-2.2 0-4 1.8-4 4s1.8 4 4 4 4-1.8 4-4-1.8-4-4-4z"/><path fill="none" stroke="#FFF" stroke-width="2" stroke-miterlimit="10" d="M6.7 14.6l18.6-9.2m-18.6 12l18.6 9.2"/></svg><svg height="32" viewBox="0 0 32 32" width="32" x="4" y="932"><path fill="#26282F" d="M19 0C11.8 0 6 5.8 6 13c0 3.2 1.2 6.2 3.1 8.5L0 30.6 1.4 32l9.1-9.1c2.3 1.9 5.2 3.1 8.5 3.1 7.2 0 13-5.8 13-13S26.2 0 19 0zm0 24c-6.1 0-11-4.9-11-11S12.9 2 19 2s11 4.9 11 11-4.9 11-11 11z"/></svg><svg height="32" viewBox="0 0 32 32" width="32" x="4" y="968"><path fill="#6E7889" d="M28 2c1.1 0 2 .9 2 2s-.9 2-2 2-2-.9-2-2 .9-2 2-2m0-2c-2.2 0-4 1.8-4 4s1.8 4 4 4 4-1.8 4-4-1.8-4-4-4zm0 26c1.1 0 2 .9 2 2s-.9 2-2 2-2-.9-2-2 .9-2 2-2m0-2c-2.2 0-4 1.8-4 4s1.8 4 4 4 4-1.8 4-4-1.8-4-4-4zM4 14c1.1 0 2 .9 2 2s-.9 2-2 2-2-.9-2-2 .9-2 2-2m0-2c-2.2 0-4 1.8-4 4s1.8 4 4 4 4-1.8 4-4-1.8-4-4-4z"/><path fill="none" stroke="#6E7889" stroke-width="2" stroke-miterlimit="10" d="M6.7 14.6l18.6-9.2m-18.6 12l18.6 9.2"/></svg><svg height="32" viewBox="0 0 32 32" width="32" x="4" y="1004"><path fill="#6E7889" d="M24 2c3.3 0 6 2.7 6 6 0 3.1-2.7 8.1-7.5 14-2.5 3-5 5.7-6.5 7.2-1.5-1.5-4-4.1-6.5-7.1C4.7 16.1 2 11.1 2 8c0-3.3 2.7-6 6-6s6 2.7 6 6h4c0-3.3 2.7-6 6-6m0-2c-4.4 0-8 3.6-8 8 0-4.4-3.6-8-8-8S0 3.6 0 8c0 8.8 16 24 16 24S32 16.8 32 8c0-4.4-3.6-8-8-8z"/></svg><svg height="32" viewBox="0 0 32 32" width="32" x="4" y="1040"><path fill="#FFF" d="M24 2c3.3 0 6 2.7 6 6 0 3.1-2.7 8.1-7.5 14-2.5 3-5 5.7-6.5 7.2-1.5-1.5-4-4.1-6.5-7.1C4.7 16.1 2 11.1 2 8c0-3.3 2.7-6 6-6s6 2.7 6 6h4c0-3.3 2.7-6 6-6m0-2c-4.4 0-8 3.6-8 8 0-4.4-3.6-8-8-8S0 3.6 0 8c0 8.8 16 24 16 24S32 16.8 32 8c0-4.4-3.6-8-8-8z"/></svg><svg height="24" viewBox="0 0 24 24" width="24" x="4" y="1076"><path fill="#FFF" d="M0 2v20c0 1.1.9 2 2 2h20c1.1 0 2-.9 2-2V2c0-1.1-.9-2-2-2H2C.9 0 0 .9 0 2zm8 0h1v4H8V2zm4 6c2.2 0 4 1.8 4 4s-1.8 4-4 4-4-1.8-4-4 1.8-4 4-4zM6 2h1v4H6V2zM4 2h1v4H4V2zM2 2h1v4H2V2zm20 20H2V8h5.5C6.6 9.1 6 10.5 6 12c0 3.3 2.7 6 6 6s6-2.7 6-6c0-1.5-.6-2.9-1.5-4H22v14zm0-16h-4V2h4v4z"/></svg><svg height="24" viewBox="0 0 24 24" width="24" x="4" y="1104"><path fill="#51618D" d="M0 2v20c0 1.1.9 2 2 2h20c1.1 0 2-.9 2-2V2c0-1.1-.9-2-2-2H2C.9 0 0 .9 0 2zm8 0h1v4H8V2zm4 6c2.2 0 4 1.8 4 4s-1.8 4-4 4-4-1.8-4-4 1.8-4 4-4zM6 2h1v4H6V2zM4 2h1v4H4V2zM2 2h1v4H2V2zm20 20H2V8h5.5C6.6 9.1 6 10.5 6 12c0 3.3 2.7 6 6 6s6-2.7 6-6c0-1.5-.6-2.9-1.5-4H22v14zm0-16h-4V2h4v4z"/></svg><svg height="19.5" viewBox="0 0 24 20" width="24" x="4" y="1132"><path fill="#505E89" d="M24 2.3c-.9.4-1.8.7-2.8.8 1-.6 1.8-1.6 2.2-2.7-1 .6-2 1-3.1 1.2C19.3.6 18 0 16.6 0c-2.7 0-4.9 2.2-4.9 4.9 0 .4 0 .8.1 1.1C7.7 5.8 4.1 3.9 1.7.9c-.5.7-.7 1.6-.7 2.5 0 1.7.9 3.2 2.2 4.1-.8-.1-1.6-.3-2.2-.6V7c0 2.4 1.7 4.4 3.9 4.8-.4.1-.8.2-1.3.2-.3 0-.6 0-.9-.1.6 2 2.4 3.4 4.6 3.4-1.7 1.3-3.8 2.1-6.1 2.1-.4 0-.8 0-1.2-.1 2.2 1.4 4.8 2.2 7.5 2.2 9.1 0 14-7.5 14-14v-.6c1-.7 1.8-1.6 2.5-2.6"/></svg><svg height="19.5" viewBox="0 0 24 20" width="24" x="4" y="1156"><path fill="#FFF" d="M24 2.3c-.9.4-1.8.7-2.8.8 1-.6 1.8-1.6 2.2-2.7-1 .6-2 1-3.1 1.2C19.3.6 18 0 16.6 0c-2.7 0-4.9 2.2-4.9 4.9 0 .4 0 .8.1 1.1C7.7 5.8 4.1 3.9 1.7.9c-.5.7-.7 1.6-.7 2.5 0 1.7.9 3.2 2.2 4.1-.8-.1-1.6-.3-2.2-.6V7c0 2.4 1.7 4.4 3.9 4.8-.4.1-.8.2-1.3.2-.3 0-.6 0-.9-.1.6 2 2.4 3.4 4.6 3.4-1.7 1.3-3.8 2.1-6.1 2.1-.4 0-.8 0-1.2-.1 2.2 1.4 4.8 2.2 7.5 2.2 9.1 0 14-7.5 14-14v-.6c1-.7 1.8-1.6 2.5-2.6"/></svg><svg height="24" viewBox="0 0 12 24" width="11.6" x="4" y="1180"><path fill="#51618D" d="M0 7.9h2.5V5.5c0-1.1 0-2.7.8-3.7C4.1.7 5.2 0 7.1 0c3.1 0 4.4.4 4.4.4L11 4.1s-1-.3-2-.3-1.8.3-1.8 1.3v2.8h4l-.3 3.6H7.1V24H2.5V11.5H0V7.9z"/></svg><svg height="24" viewBox="0 0 12 24" width="11.6" x="4" y="1208"><path fill="#FFF" d="M0 7.9h2.5V5.5c0-1.1 0-2.7.8-3.7C4.1.7 5.2 0 7.1 0c3.1 0 4.4.4 4.4.4L11 4.1s-1-.3-2-.3-1.8.3-1.8 1.3v2.8h4l-.3 3.6H7.1V24H2.5V11.5H0V7.9z"/></svg><svg height="20" viewBox="0 0 20 20" width="20" x="4" y="1236"><path fill="#FFF" d="M19.6 6.3L11.2.4C10.8.1 10.4 0 10 0c-.4 0-.8.1-1.1.4L.9 6c-.6.3-.9.9-.9 1.6V18c0 1.1.9 2 2 2h16c1.1 0 2-.9 2-2V7.1c0-.3-.2-.7-.4-.8zM9.4 1.2c.2-.1.4-.2.6-.2.2 0 .4.1.6.2l7.7 5.4H1.7l7.7-5.4zm8 6.4l-6.8 5.3c-.2.1-.4.1-.6.1-.2 0-.4-.1-.6-.2L2.6 7.6h14.8zM18 19H2c-.6 0-1-.4-1-1V7.6l7.8 6c.3.3.8.4 1.2.4.4 0 .9-.1 1.2-.4l7.8-6V18c0 .6-.4 1-1 1z"/></svg><svg height="20" viewBox="0 0 20 20" width="20" x="4" y="1260"><path fill="#FFF" d="M19 7h-2c0-3.9-3.1-7-7-7S3 3.1 3 7H1c-.7 0-1.2.7-1 1.3l3.4 11c.1.4.5.7 1 .7h11.2c.4 0 .8-.3 1-.7l3.4-11c.2-.6-.3-1.3-1-1.3zm-9-6c3.3 0 6 2.7 6 6H4c0-3.3 2.7-6 6-6zm5.6 18H4.4L1 8h18l-3.4 11z"/></svg><svg height="20" viewBox="0 0 20 20" width="20" x="4" y="1284"><path fill="#FFF" d="M15 1c2.2 0 4 1.8 4 4 0 3.9-6 10.6-9 13.6-3-3-9-9.7-9-13.6 0-2.2 1.8-4 4-4s4 1.8 4 4c0 .6.4 1 1 1s1-.4 1-1c0-2.2 1.8-4 4-4m0-1c-2.8 0-5 2.2-5 5 0-2.8-2.2-5-5-5S0 2.2 0 5c0 5.5 10 15 10 15s10-9.5 10-15c0-2.8-2.2-5-5-5z"/></svg><svg height="20" viewBox="0 0 20 20" width="20" x="4" y="1308"><path fill="#FFF" d="M12 0C7.6 0 4 3.6 4 8c0 2 .8 3.9 2 5.3L.1 19.2c-.2.2-.2.5 0 .7.1.1.3.1.4.1s.3 0 .4-.1L6.7 14c1.4 1.2 3.3 2 5.3 2 4.4 0 8-3.6 8-8s-3.6-8-8-8zm0 15c-3.9 0-7-3.1-7-7s3.1-7 7-7 7 3.1 7 7-3.1 7-7 7z"/></svg><svg height="20" viewBox="0 0 20 20" width="20" x="4" y="1332"><path fill="#FFF" d="M12 0C7.6 0 4 3.6 4 8c0 2 .8 3.9 2 5.3L.1 19.2c-.2.2-.2.5 0 .7.1.1.3.1.4.1s.3 0 .4-.1L6.7 14c1.4 1.2 3.3 2 5.3 2 4.4 0 8-3.6 8-8s-3.6-8-8-8zm0 15c-3.9 0-7-3.1-7-7s3.1-7 7-7 7 3.1 7 7-3.1 7-7 7z"/></svg><svg height="20" viewBox="0 0 20 20" width="20" x="4" y="1356"><path d="M10 1c2.8 0 5 2.2 5 5s-2.2 5-5 5-5-2.2-5-5 2.2-5 5-5m0-1C6.7 0 4 2.7 4 6s2.7 6 6 6 6-2.7 6-6-2.7-6-6-6zm9.5 20c-.3 0-.5-.2-.5-.5 0-3.9-5.6-4.5-9-4.5-6 0-9 1.5-9 4.5 0 .3-.2.5-.5.5s-.5-.2-.5-.5C0 15.9 3.4 14 10 14c6.4 0 10 2 10 5.5 0 .3-.2.5-.5.5z" fill="#FFF"/></svg><svg height="16" viewBox="0 0 16 16" width="16" x="4" y="1380"><path fill="#6E7889" d="M16 7H9V0H7v7H0v2h7v7h2V9h7z"/></svg><svg height="12" viewBox="0 0 16 12" width="16" x="4" y="1400"><path d="M0 0h16v2H0zm0 10h16v2H0z" fill="#6E7889"/></svg><svg height="12" viewBox="0 0 12 12" width="12" x="4" y="1416"><path fill="#1D2026" d="M12 1l-1-1-5 5-5-5-1 1 5 5-5 5 1 1 5-5 5 5 1-1-5-5z"/></svg></svg>