<?xml version="1.0" encoding="utf-8"?>
<!-- Generator: Adobe Illustrator 18.0.0, SVG Export Plug-In . SVG Version: 6.00 Build 0)  -->
<!DOCTYPE svg PUBLIC "-//W3C//DTD SVG 1.1//EN" "http://www.w3.org/Graphics/SVG/1.1/DTD/svg11.dtd">
<svg version="1.1" id="Слой_1" xmlns="http://www.w3.org/2000/svg" xmlns:xlink="http://www.w3.org/1999/xlink" x="0px" y="0px"
	 viewBox="0 0 20 20" enable-background="new 0 0 20 20" xml:space="preserve">
<path id="cart_icon_5_" fill="#FFFFFF" d="M19,7h-2c0-3.9-3.1-7-7-7C6.1,0,3,3.1,3,7H1C0.3,7-0.2,7.7,0,8.3l3.4,11
	c0.1,0.4,0.5,0.7,1,0.7h11.2c0.4,0,0.8-0.3,1-0.7l3.4-11C20.2,7.7,19.7,7,19,7z M10,1c3.3,0,6,2.7,6,6H4C4,3.7,6.7,1,10,1z M15.6,19
	H4.4L1,8h18L15.6,19z"/>
</svg>
