<?xml version="1.0" encoding="utf-8"?>
<!-- Generator: Adobe Illustrator 18.0.0, SVG Export Plug-In . SVG Version: 6.00 Build 0)  -->
<!DOCTYPE svg PUBLIC "-//W3C//DTD SVG 1.1//EN" "http://www.w3.org/Graphics/SVG/1.1/DTD/svg11.dtd">
<svg version="1.1" id="Слой_1" xmlns="http://www.w3.org/2000/svg" xmlns:xlink="http://www.w3.org/1999/xlink" x="0px" y="0px"
	 viewBox="0 0 20 20" enable-background="new 0 0 20 20" xml:space="preserve">
<path id="mail_icon_5_" fill="#FFFFFF" d="M19.6,6.3l-8.4-5.9C10.8,0.1,10.4,0,10,0C9.6,0,9.2,0.1,8.9,0.4L0.9,6
	C0.3,6.3,0,6.9,0,7.6V18c0,1.1,0.9,2,2,2h16c1.1,0,2-0.9,2-2V7.1C20,6.8,19.8,6.4,19.6,6.3z M9.4,1.2C9.6,1.1,9.8,1,10,1
	c0.2,0,0.4,0.1,0.6,0.2l7.7,5.4H1.7L9.4,1.2z M17.4,7.6l-6.8,5.3C10.4,13,10.2,13,10,13c-0.2,0-0.4-0.1-0.6-0.2L2.6,7.6H17.4z
	 M18,19H2c-0.6,0-1-0.4-1-1V7.6c0,0,0,0,0,0l7.8,6C9.1,13.9,9.6,14,10,14c0.4,0,0.9-0.1,1.2-0.4l7.8-6V18C19,18.6,18.6,19,18,19z"/>
</svg>
