<?xml version="1.0" encoding="utf-8"?>
<!-- Generator: Adobe Illustrator 18.0.0, SVG Export Plug-In . SVG Version: 6.00 Build 0)  -->
<!DOCTYPE svg PUBLIC "-//W3C//DTD SVG 1.1//EN" "http://www.w3.org/Graphics/SVG/1.1/DTD/svg11.dtd">
<svg version="1.1" id="Слой_1" xmlns="http://www.w3.org/2000/svg" xmlns:xlink="http://www.w3.org/1999/xlink" x="0px" y="0px"
	 viewBox="0 0 32 32" enable-background="new 0 0 32 32" xml:space="preserve">
<g id="like_icon_13_">
	<path fill="#FFFFFF" d="M24,2c3.3,0,6,2.7,6,6c0,3.1-2.7,8.1-7.5,14c-2.5,3-5,5.7-6.5,7.2c-1.5-1.5-4-4.1-6.5-7.1
		C4.7,16.1,2,11.1,2,8c0-3.3,2.7-6,6-6s6,2.7,6,6h4C18,4.7,20.7,2,24,2 M24,0c-4.4,0-8,3.6-8,8c0-4.4-3.6-8-8-8C3.6,0,0,3.6,0,8
		c0,8.8,16,24,16,24S32,16.8,32,8C32,3.6,28.4,0,24,0L24,0z"/>
</g>
</svg>
