<?xml version="1.0" encoding="utf-8"?>
<!-- Generator: Adobe Illustrator 18.0.0, SVG Export Plug-In . SVG Version: 6.00 Build 0)  -->
<!DOCTYPE svg PUBLIC "-//W3C//DTD SVG 1.1//EN" "http://www.w3.org/Graphics/SVG/1.1/DTD/svg11.dtd">
<svg version="1.1" id="Слой_1" xmlns="http://www.w3.org/2000/svg" xmlns:xlink="http://www.w3.org/1999/xlink" x="0px" y="0px"
	 viewBox="0 0 20 20" enable-background="new 0 0 20 20" xml:space="preserve">
<path id="like_icon_5_" fill="#FFFFFF" d="M15,1c2.2,0,4,1.8,4,4c0,3.9-6,10.6-9,13.6C7,15.6,1,8.9,1,5c0-2.2,1.8-4,4-4s4,1.8,4,4
	c0,0.6,0.4,1,1,1s1-0.4,1-1C11,2.8,12.8,1,15,1 M15,0c-2.8,0-5,2.2-5,5c0-2.8-2.2-5-5-5C2.2,0,0,2.2,0,5c0,5.5,10,15,10,15
	s10-9.5,10-15C20,2.2,17.8,0,15,0L15,0z"/>
</svg>
