<?xml version="1.0" encoding="utf-8"?>
<!-- Generator: Adobe Illustrator 18.0.0, SVG Export Plug-In . SVG Version: 6.00 Build 0)  -->
<!DOCTYPE svg PUBLIC "-//W3C//DTD SVG 1.1//EN" "http://www.w3.org/Graphics/SVG/1.1/DTD/svg11.dtd">
<svg version="1.1" id="Слой_1" xmlns="http://www.w3.org/2000/svg" xmlns:xlink="http://www.w3.org/1999/xlink" x="0px" y="0px"
	 viewBox="0 0 24 24" enable-background="new 0 0 24 24" xml:space="preserve">
<path id="insta_17_" fill="#FFFFFF" d="M0,2v20c0,1.1,0.9,2,2,2h20c1.1,0,2-0.9,2-2V2c0-1.1-0.9-2-2-2H2C0.9,0,0,0.9,0,2z M8,2h1v4
	H8V2z M12,8c2.2,0,4,1.8,4,4s-1.8,4-4,4s-4-1.8-4-4S9.8,8,12,8z M6,2h1v4H6V2z M4,2h1v4H4V2z M2,2h1v4H2V2z M22,22H2V8h5.5
	C6.6,9.1,6,10.5,6,12c0,3.3,2.7,6,6,6c3.3,0,6-2.7,6-6c0-1.5-0.6-2.9-1.5-4H22V22z M22,6h-4V2h4V6z"/>
</svg>
