<?xml version="1.0" encoding="utf-8"?>
<!-- Generator: Adobe Illustrator 18.0.0, SVG Export Plug-In . SVG Version: 6.00 Build 0)  -->
<!DOCTYPE svg PUBLIC "-//W3C//DTD SVG 1.1//EN" "http://www.w3.org/Graphics/SVG/1.1/DTD/svg11.dtd">
<svg version="1.1" id="Слой_1" xmlns="http://www.w3.org/2000/svg" xmlns:xlink="http://www.w3.org/1999/xlink" x="0px" y="0px"
	 viewBox="0 0 200 200" enable-background="new 0 0 200 200" xml:space="preserve">
<g>
	<path fill="#FFFFFF" d="M100,110.7c5.9,0,10.7-4.8,10.7-10.7s-4.8-10.7-10.7-10.7S89.3,94.1,89.3,100S94.1,110.7,100,110.7z"/>
	<rect x="78.7" y="73.3" fill="#FFFFFF" width="2.7" height="10.7"/>
	<rect x="84" y="73.3" fill="#FFFFFF" width="2.7" height="10.7"/>
	<rect x="89.3" y="73.3" fill="#FFFFFF" width="2.7" height="10.7"/>
	<path fill="#FFFFFF" d="M100,0C44.8,0,0,44.8,0,100c0,55.2,44.8,100,100,100s100-44.8,100-100C200,44.8,155.2,0,100,0z M132,126.7
		c0,2.9-2.4,5.3-5.3,5.3H73.3c-2.9,0-5.3-2.4-5.3-5.3V73.3c0-2.9,2.4-5.3,5.3-5.3h53.3c2.9,0,5.3,2.4,5.3,5.3V126.7z"/>
	<rect x="116" y="73.3" fill="#FFFFFF" width="10.7" height="10.7"/>
	<path fill="#FFFFFF" d="M116,100c0,8.8-7.2,16-16,16c-8.8,0-16-7.2-16-16c0-4.1,1.6-7.8,4.1-10.7H73.3v37.3h53.3V89.3h-14.8
		C114.4,92.2,116,95.9,116,100z"/>
	<rect x="73.3" y="73.3" fill="#FFFFFF" width="2.7" height="10.7"/>
</g>
</svg>
