<?xml version="1.0" encoding="utf-8"?>
<!-- Generator: Adobe Illustrator 18.0.0, SVG Export Plug-In . SVG Version: 6.00 Build 0)  -->
<!DOCTYPE svg PUBLIC "-//W3C//DTD SVG 1.1//EN" "http://www.w3.org/Graphics/SVG/1.1/DTD/svg11.dtd">
<svg version="1.1" id="Слой_1" xmlns="http://www.w3.org/2000/svg" xmlns:xlink="http://www.w3.org/1999/xlink" x="0px" y="0px"
	 viewBox="0 0 186 81.2" enable-background="new 0 0 186 81.2" xml:space="preserve">
<g id="logo_2_">
	<g>
		<path fill="#1D2026" d="M48.7,67.2c0.9,0,1.7,0,2.4,0c0.6,0,1.4,0,2.3,0l0.1,0.5l-1.3,0.4c-0.1,0-0.2,0.2-0.2,0.3c0,0.4,0,1,0,1.6
			v7.8c0,0.8,0,1.4,0,1.9c0,0.1,0.1,0.3,0.3,0.3l1.3,0.4l0,0.5c-0.9,0-2,0-3.1,0c-1.1,0-2,0-2.8,0l0-0.5l1.1-0.3
			c0.2,0,0.2-0.2,0.2-0.4c0-0.5,0-1.1,0-1.9v-6.2c0-0.3,0-1,0-1.9c-0.2,0.6-0.5,1.1-0.7,1.7l-3.9,9.5L43.6,81l-3.7-9.2
			c-0.2-0.5-0.4-1.1-0.7-1.8c0,0.9,0,1.5,0,1.8v6c0,0.8,0,1.4,0,1.9c0,0.2,0.1,0.3,0.3,0.4l1.1,0.3l0,0.5c-0.8,0-1.4,0-2,0
			c-0.6,0-1.3,0-2.2,0l0-0.5l1.3-0.4c0.2-0.1,0.3-0.2,0.3-0.3c0-0.5,0-1.2,0-1.9V70c0-0.7,0-1.2,0-1.6c0-0.2-0.1-0.3-0.2-0.3
			l-1.3-0.4l0-0.5c1.1,0,1.9,0,2.4,0c0.7,0,1.5,0,2.3,0l3.4,8.6c0.1,0.4,0.3,0.7,0.4,1.1c0.1-0.3,0.3-0.7,0.4-1.1L48.7,67.2z"/>
		<path fill="#1D2026" d="M73,73.7c0,2.3-0.7,4.1-2,5.4c-1.3,1.4-3.2,2.1-5.5,2.1c-2.3,0-4-0.6-5.3-1.9c-1.2-1.3-1.9-3-1.9-5.1
			c0-2.3,0.7-4,2-5.3c1.3-1.3,3.2-2,5.5-2c2.3,0,4,0.6,5.3,1.8C72.4,69.9,73,71.6,73,73.7z M61.6,73.9c0,2.1,0.4,3.7,1.1,4.8
			s1.7,1.7,3.1,1.7c1.3,0,2.3-0.5,3-1.5c0.6-1,1-2.6,1-4.7c0-2-0.3-3.6-1-4.7s-1.7-1.6-3.1-1.6c-1.4,0-2.4,0.5-3,1.5
			S61.6,71.8,61.6,73.9z"/>
		<path fill="#1D2026" d="M84.5,68.1c-0.4-0.2-0.9-0.2-1.4-0.2c-0.7,0-1.3,0.2-1.8,0.6c-0.5,0.4-0.7,0.9-0.7,1.6
			c0,0.4,0.1,0.7,0.2,1s0.4,0.5,0.6,0.7s0.6,0.4,0.9,0.6c0.3,0.2,0.7,0.3,1,0.5c0.4,0.2,0.8,0.4,1.2,0.6s0.8,0.5,1.1,0.8
			c0.3,0.3,0.6,0.7,0.8,1.1s0.3,1,0.3,1.6c0,1.3-0.5,2.4-1.5,3.1c-1,0.8-2.3,1.1-3.9,1.1c-1.2,0-2.3-0.2-3.5-0.6l-0.1-0.1l0.5-3.5
			l0.6-0.1l0.7,3c0.5,0.2,1,0.3,1.6,0.3c0.8,0,1.5-0.2,2-0.6s0.8-1,0.8-1.7c0-0.4-0.1-0.7-0.2-1c-0.2-0.3-0.4-0.5-0.6-0.7
			c-0.3-0.2-0.6-0.4-0.9-0.6c-0.3-0.2-0.7-0.3-1.1-0.5c-0.4-0.2-0.8-0.4-1.2-0.6s-0.8-0.5-1.1-0.8c-0.3-0.3-0.6-0.7-0.8-1.1
			c-0.2-0.4-0.3-0.9-0.3-1.5c0-1.2,0.5-2.2,1.4-3c1-0.7,2.2-1.1,3.7-1.1c1,0,2.1,0.1,3.3,0.4l0.1,0.1l-0.6,3.1l-0.5,0.1L84.5,68.1z"
			/>
		<path fill="#1D2026" d="M102.2,70.9l-0.5,0.1l-0.7-2.8c-0.5-0.2-1.1-0.2-1.7-0.2c-1.4,0-2.6,0.5-3.3,1.6c-0.8,1.1-1.2,2.5-1.2,4.2
			c0,1.9,0.5,3.3,1.4,4.5c0.9,1.1,2.2,1.7,3.9,1.7c0.9,0,1.9-0.2,2.9-0.6l0.1,0.6c-1.3,0.9-2.8,1.3-4.4,1.3c-2.1,0-3.8-0.6-5.2-1.9
			c-1.3-1.3-2-3-2-5.1c0-2.2,0.7-4,2.2-5.3c1.4-1.3,3.3-2,5.6-2c1.1,0,2.3,0.1,3.5,0.4l0.1,0.1L102.2,70.9z"/>
		<path fill="#1D2026" d="M121.6,73.7c0,2.3-0.7,4.1-2,5.4c-1.3,1.4-3.2,2.1-5.5,2.1c-2.3,0-4-0.6-5.3-1.9c-1.2-1.3-1.9-3-1.9-5.1
			c0-2.3,0.7-4,2-5.3c1.3-1.3,3.2-2,5.5-2c2.3,0,4,0.6,5.3,1.8C121,69.9,121.6,71.6,121.6,73.7z M110.2,73.9c0,2.1,0.4,3.7,1.1,4.8
			s1.7,1.7,3.1,1.7c1.3,0,2.3-0.5,3-1.5c0.6-1,1-2.6,1-4.7c0-2-0.3-3.6-1-4.7s-1.7-1.6-3.1-1.6c-1.4,0-2.4,0.5-3,1.5
			S110.2,71.8,110.2,73.9z"/>
		<path fill="#1D2026" d="M138.8,75.6c0.1,0.4,0.2,0.7,0.3,1c0.1-0.4,0.2-0.7,0.3-1l2-5.8c0.1-0.4,0.2-0.7,0.3-0.9s0.1-0.4,0.1-0.5
			c0-0.1,0-0.2-0.1-0.3s-0.2-0.1-0.3-0.1l-0.9-0.3l0-0.5c0.9,0,1.7,0,2.3,0c0.6,0,1.3,0,2.1,0l0,0.5l-1,0.3
			c-0.2,0.1-0.4,0.2-0.6,0.4c-0.1,0.2-0.3,0.4-0.4,0.8l-4.2,11.7l-1.1,0.1l-2.5-7.7c-0.1-0.4-0.3-0.9-0.4-1.3
			c-0.2,0.5-0.3,0.9-0.4,1.3l-2.7,7.7l-1.1,0.1l-3.8-11.7c-0.1-0.4-0.3-0.8-0.4-0.9c-0.1-0.2-0.3-0.3-0.6-0.4l-0.9-0.3l0-0.5
			c0.9,0,1.8,0,2.7,0c1.2,0,2.3,0,3.4,0l0.1,0.5l-1,0.3c-0.1,0-0.2,0.1-0.3,0.1s-0.1,0.1-0.1,0.3c0,0.1,0,0.3,0.1,0.5
			c0,0.2,0.1,0.5,0.2,0.8l1.8,5.8c0.1,0.4,0.2,0.7,0.3,1c0.1-0.4,0.2-0.7,0.3-1l2.9-8.4l1-0.1L138.8,75.6z"/>
	</g>
	<g id="Izeta_5_">
		<polygon fill="#1D2026" points="105.9,0 145.1,0 145.1,20.5 138.2,20.5 138.2,6.5 129,6.5 129,43.8 113,43.8 113,37.2 121.9,37.2 
			121.9,6.5 113,6.5 113,20.5 105.9,20.5 		"/>
		<polygon fill="#1D2026" points="27.8,0 62,0 62,6.5 37.4,37.2 62,37.2 62,43.8 27.8,43.8 27.8,37.2 52.3,6.5 34.2,6.5 34.2,17.1 
			27.8,17.1 		"/>
		<path fill="#1D2026" d="M181.7,37.2L166.2,0H147v6.5h10l-13.1,30.7v6.5h14.2v-6.5h-6.3l2.8-6.8h16.6l3,6.8h-7v6.5H186v-6.5H181.7z
			 M157.3,23.7l5.7-13l5.3,13H157.3z"/>
		<polygon fill="#1D2026" points="16.3,37.2 16.3,6.5 25.3,6.5 25.3,0 0,0 0,6.5 9.2,6.5 9.2,37.2 0,37.2 0,43.8 0,43.8 25.3,43.8 
			25.3,37.2 		"/>
		<polygon fill="#1D2026" points="103.5,0 103.5,6.5 77.7,6.5 77.7,17.5 84.7,17.5 84.7,12.4 91.6,12.4 91.6,24.1 77.7,24.1 
			77.7,37.2 96.8,37.2 96.8,27.4 103.5,27.4 103.5,43.8 64.4,43.8 64.4,37.2 70.6,37.2 70.6,6.5 64.4,6.5 64.4,0 		"/>
	</g>
</g>
</svg>
