<?xml version="1.0" encoding="utf-8"?>
<!-- Generator: Adobe Illustrator 18.0.0, SVG Export Plug-In . SVG Version: 6.00 Build 0)  -->
<!DOCTYPE svg PUBLIC "-//W3C//DTD SVG 1.1//EN" "http://www.w3.org/Graphics/SVG/1.1/DTD/svg11.dtd">
<svg version="1.1" id="Слой_1" xmlns="http://www.w3.org/2000/svg" xmlns:xlink="http://www.w3.org/1999/xlink" x="0px" y="0px"
	 viewBox="0 0 20 20" enable-background="new 0 0 20 20" xml:space="preserve">
<path id="search_icon_5_" fill="#FFFFFF" d="M12,0C7.6,0,4,3.6,4,8c0,2,0.8,3.9,2,5.3l-5.9,5.9c-0.2,0.2-0.2,0.5,0,0.7
	C0.2,20,0.4,20,0.5,20s0.3,0,0.4-0.1L6.7,14c1.4,1.2,3.3,2,5.3,2c4.4,0,8-3.6,8-8S16.4,0,12,0z M12,15c-3.9,0-7-3.1-7-7s3.1-7,7-7
	s7,3.1,7,7S15.9,15,12,15z"/>
</svg>
