<?xml version="1.0" encoding="utf-8"?>
<!-- Generator: Adobe Illustrator 18.0.0, SVG Export Plug-In . SVG Version: 6.00 Build 0)  -->
<!DOCTYPE svg PUBLIC "-//W3C//DTD SVG 1.1//EN" "http://www.w3.org/Graphics/SVG/1.1/DTD/svg11.dtd">
<svg version="1.1" id="Слой_1" xmlns="http://www.w3.org/2000/svg" xmlns:xlink="http://www.w3.org/1999/xlink" x="0px" y="0px"
	 viewBox="0 0 32 32" enable-background="new 0 0 32 32" xml:space="preserve">
<g id="socials_icon">
	<g>
		<path fill="#FFFFFF" d="M28,2c1.1,0,2,0.9,2,2s-0.9,2-2,2s-2-0.9-2-2S26.9,2,28,2 M28,0c-2.2,0-4,1.8-4,4s1.8,4,4,4s4-1.8,4-4
			S30.2,0,28,0L28,0z"/>
	</g>
	<g>
		<path fill="#FFFFFF" d="M28,26c1.1,0,2,0.9,2,2s-0.9,2-2,2s-2-0.9-2-2S26.9,26,28,26 M28,24c-2.2,0-4,1.8-4,4s1.8,4,4,4s4-1.8,4-4
			S30.2,24,28,24L28,24z"/>
	</g>
	<g>
		<path fill="#FFFFFF" d="M4,14c1.1,0,2,0.9,2,2s-0.9,2-2,2s-2-0.9-2-2S2.9,14,4,14 M4,12c-2.2,0-4,1.8-4,4s1.8,4,4,4s4-1.8,4-4
			S6.2,12,4,12L4,12z"/>
	</g>
	<line fill="none" stroke="#FFFFFF" stroke-width="2" stroke-miterlimit="10" x1="6.7" y1="14.6" x2="25.3" y2="5.4"/>
	<line fill="none" stroke="#FFFFFF" stroke-width="2" stroke-miterlimit="10" x1="6.7" y1="17.4" x2="25.3" y2="26.6"/>
</g>
</svg>
