<?xml version="1.0" encoding="utf-8"?>
<!-- Generator: Adobe Illustrator 18.0.0, SVG Export Plug-In . SVG Version: 6.00 Build 0)  -->
<!DOCTYPE svg PUBLIC "-//W3C//DTD SVG 1.1//EN" "http://www.w3.org/Graphics/SVG/1.1/DTD/svg11.dtd">
<svg version="1.1" id="Слой_1" xmlns="http://www.w3.org/2000/svg" xmlns:xlink="http://www.w3.org/1999/xlink" x="0px" y="0px"
	 viewBox="0 0 20 20" enable-background="new 0 0 20 20" xml:space="preserve">
<g id="user_icon_5_">
	<path fill="#FFFFFF" d="M10,1c2.8,0,5,2.2,5,5s-2.2,5-5,5S5,8.8,5,6S7.2,1,10,1 M10,0C6.7,0,4,2.7,4,6s2.7,6,6,6c3.3,0,6-2.7,6-6
		S13.3,0,10,0L10,0z"/>
	<path fill="#FFFFFF" d="M19.5,20c-0.3,0-0.5-0.2-0.5-0.5c0-3.9-5.6-4.5-9-4.5c-6,0-9,1.5-9,4.5C1,19.8,0.8,20,0.5,20S0,19.8,0,19.5
		C0,15.9,3.4,14,10,14c6.4,0,10,2,10,5.5C20,19.8,19.8,20,19.5,20z"/>
</g>
</svg>
